<?xml version="1.0" encoding="iso-8859-1"?>
<!-- Generator: Adobe Illustrator 19.0.0, SVG Export Plug-In . SVG Version: 6.00 Build 0)  -->
<svg version="1.1" id="Capa_1" xmlns="http://www.w3.org/2000/svg" xmlns:xlink="http://www.w3.org/1999/xlink" x="0px" y="0px"
	 viewBox="0 0 512 512" style="enable-background:new 0 0 512 512;" xml:space="preserve">
<g>
	<g>
		<path d="M455.069,262.93C453.21,261.069,450.63,260,448,260s-5.21,1.069-7.07,2.93c-1.86,1.861-2.93,4.44-2.93,7.07
			s1.069,5.21,2.93,7.069c1.86,1.86,4.44,2.931,7.07,2.931s5.21-1.07,7.069-2.931C456.93,275.21,458,272.63,458,270
			S456.93,264.79,455.069,262.93z"/>
	</g>
</g>
<g>
	<g>
		<path d="M448,60c5.522,0,10-4.478,10-10V30c0-16.542-13.458-30-30-30H74C57.458,0,44,13.458,44,30v24H34C15.252,54,0,69.252,0,88
			s15.252,34,34,34h10v44H34c-18.748,0-34,15.252-34,34s15.252,34,34,34h10v44H34c-18.748,0-34,15.252-34,34s15.252,34,34,34h10v44
			H34c-18.748,0-34,15.252-34,34s15.252,34,34,34h10v24c0,16.542,13.458,30,30,30h354c16.542,0,30-13.458,30-30V312
			c0-5.522-4.478-10-10-10c-5.522,0-10,4.478-10,10v170c0,5.514-4.486,10-10,10H74c-5.514,0-10-4.486-10-10v-24h5.168
			c18.748,0,34-15.252,34-34c0-5.522-4.478-10-10-10c-5.522,0-10,4.478-10,10c0,7.72-6.28,14-14,14H64v-92h5.168
			c18.748,0,34-15.252,34-34c0-5.522-4.478-10-10-10c-5.522,0-10,4.478-10,10c0,7.72-6.28,14-14,14H64v-92h5.168
			c18.748,0,34-15.252,34-34c0-5.522-4.478-10-10-10c-5.522,0-10,4.478-10,10c0,7.72-6.28,14-14,14H64v-92h5.168
			c18.748,0,34-15.252,34-34c0-5.522-4.478-10-10-10c-5.522,0-10,4.478-10,10c0,7.72-6.28,14-14,14H64V30c0-5.514,4.486-10,10-10
			h354c5.514,0,10,4.486,10,10v20C438,55.522,442.478,60,448,60z M44,438H34c-7.72,0-14-6.28-14-14c0-7.72,6.28-14,14-14h10V438z
			 M44,326H34c-7.72,0-14-6.28-14-14c0-7.72,6.28-14,14-14h10V326z M44,214H34c-7.72,0-14-6.28-14-14c0-7.72,6.28-14,14-14h10V214z
			 M44,102H34c-7.72,0-14-6.28-14-14c0-7.72,6.28-14,14-14h10V102z"/>
	</g>
</g>
<g>
	<g>
		<path d="M495.912,96.805c-21.415-21.414-56.262-21.416-77.679,0L224.547,290.491c-0.014,0.014-0.026,0.03-0.04,0.044
			c-0.061,0.061-0.114,0.128-0.173,0.191c-0.203,0.216-0.399,0.438-0.579,0.667c-0.068,0.087-0.131,0.178-0.197,0.267
			c-0.166,0.226-0.322,0.456-0.467,0.692c-0.055,0.09-0.108,0.179-0.16,0.271c-0.153,0.268-0.291,0.542-0.417,0.821
			c-0.022,0.048-0.051,0.092-0.072,0.141l-0.089,0.205c-0.002,0.004-0.004,0.008-0.005,0.012l-48.524,111.937
			c-1.633,3.766-0.799,8.146,2.104,11.049c1.915,1.915,4.473,2.929,7.073,2.929c1.342,0,2.694-0.27,3.976-0.825l112.154-48.618
			c0.052-0.022,0.098-0.053,0.149-0.076c0.274-0.124,0.543-0.26,0.807-0.411c0.094-0.054,0.188-0.109,0.28-0.165
			c0.233-0.143,0.46-0.297,0.683-0.46c0.092-0.067,0.185-0.132,0.274-0.201c0.228-0.179,0.448-0.374,0.663-0.576
			c0.063-0.059,0.131-0.113,0.193-0.174c0.014-0.014,0.03-0.025,0.044-0.04l193.687-193.687
			C506.286,164.109,512,150.315,512,135.644C512,120.973,506.286,107.179,495.912,96.805z M202.239,390.478l32.705-75.446
			l42.741,42.741L202.239,390.478z M295.154,346.956l-49.394-49.394l167.31-167.309l49.394,49.393L295.154,346.956z M481.77,160.341
			l-5.163,5.163l-49.394-49.393l5.164-5.164c13.616-13.617,35.775-13.617,49.394,0c6.598,6.597,10.23,15.367,10.23,24.696
			C492,144.974,488.367,153.744,481.77,160.341z"/>
	</g>
</g>
<g>
	<g>
		<path d="M285,74h-97c-5.522,0-10,4.478-10,10c0,5.522,4.478,10,10,10h97c5.522,0,10-4.478,10-10C295,78.478,290.522,74,285,74z"/>
	</g>
</g>
<g>
	<g>
		<path d="M151.069,76.93C149.21,75.069,146.63,74,144,74s-5.21,1.069-7.07,2.93C135.07,78.79,134,81.37,134,84
			s1.069,5.21,2.93,7.069C138.79,92.93,141.37,94,144,94s5.21-1.07,7.069-2.931C152.93,89.21,154,86.63,154,84
			S152.93,78.79,151.069,76.93z"/>
	</g>
</g>
<g>
</g>
<g>
</g>
<g>
</g>
<g>
</g>
<g>
</g>
<g>
</g>
<g>
</g>
<g>
</g>
<g>
</g>
<g>
</g>
<g>
</g>
<g>
</g>
<g>
</g>
<g>
</g>
<g>
</g>
</svg>
